<svg xmlns="http://www.w3.org/2000/svg" xmlns:xlink="http://www.w3.org/1999/xlink" id="Layer_1" x="0" y="0" enable-background="new 0 0 200 200" version="1.1" viewBox="0 0 200 200" xml:space="preserve"><g><linearGradient id="SVGID_1_" x1="100" x2="100" y1="149" y2="51" gradientUnits="userSpaceOnUse"><stop offset="0" style="stop-color:#1d40b2"/><stop offset="1" style="stop-color:#1680d6"/></linearGradient><path fill="url(#SVGID_1_)" d="M169,69V51h-18v5h-42v-5H91v5H49v-5H31v18h5v22h-5v18h5v22h-5v18h18v-5h42v5h18v-5h42v5h18v-18h-5 v-22h5V91h-5V69H169z M95,55h10v10H95V55z M35,65V55h10v10H35z M35,105V95h10v10H35z M45,145H35v-10h10V145z M105,145H95v-10h10 V145z M151,136h-42v-5H91v5H49v-5h-5v-22h5V91h-5V69h5v-5h42v5h18v-5h42v5h5v22h-5v18h5v22h-5V136z M165,135v10h-10v-10H165z M165,95v10h-10V95H165z M155,65V55h10v10H155z"/><polygon fill="#1960C4" points="102 93 98 93 98 98 93 98 93 102 98 102 98 107 102 107 102 102 107 102 107 98 102 98"/><g><linearGradient id="SVGID_2_" x1="165.629" x2="188.289" y1="159.625" y2="153.553" gradientUnits="userSpaceOnUse"><stop offset="0" style="stop-color:#1c1c1c"/><stop offset="1" style="stop-color:#3d3e3f"/></linearGradient><polygon fill="url(#SVGID_2_)" fill-rule="evenodd" points="174.2 173.2 193.5 173.2 160.4 140" clip-rule="evenodd"/><linearGradient id="SVGID_3_" x1="154.495" x2="170.848" y1="165.074" y2="160.692" gradientUnits="userSpaceOnUse"><stop offset="0" style="stop-color:#1c1c1c"/><stop offset="1" style="stop-color:#3d3e3f"/></linearGradient><polyline fill="url(#SVGID_3_)" fill-rule="evenodd" points="160.4 140 160.4 187 174.2 173.2" clip-rule="evenodd"/></g></g></svg>